<svg xmlns="http://www.w3.org/2000/svg" width="180" height="180" viewBox="0 0 180 180">
  <path id="Icon_awesome-facebook-square" data-name="Icon awesome-facebook-square" d="M160.714,2.25H19.286A19.286,19.286,0,0,0,0,21.536V162.964A19.286,19.286,0,0,0,19.286,182.25H74.431v-61.2H49.118V92.25H74.431V70.3c0-24.971,14.866-38.764,37.635-38.764a153.348,153.348,0,0,1,22.307,1.945V57.986H121.809c-12.379,0-16.24,7.682-16.24,15.561v18.7H133.2l-4.42,28.8H105.569v61.2h55.145A19.286,19.286,0,0,0,180,162.964V21.536A19.286,19.286,0,0,0,160.714,2.25Z" transform="translate(0 -2.25)" fill="#225384"/>
</svg>
