<svg xmlns="http://www.w3.org/2000/svg" width="180" height="180" viewBox="0 0 180 180">
  <path id="Icon_awesome-instagram" data-name="Icon awesome-instagram" d="M90.015,46.088a46.15,46.15,0,1,0,46.139,46.15A46.072,46.072,0,0,0,90.015,46.088Zm0,76.153a30,30,0,1,1,30-30A30.054,30.054,0,0,1,90.015,122.241ZM148.8,44.2a10.762,10.762,0,1,1-10.762-10.764A10.738,10.738,0,0,1,148.8,44.2Zm30.559,10.925c-.683-14.419-3.975-27.192-14.537-37.715C154.3,6.887,141.535,3.593,127.119,2.87c-14.858-.843-59.391-.843-74.249,0-14.376.683-27.146,3.976-37.707,14.5S1.35,40.666.627,55.085c-.843,14.861-.843,59.4,0,74.265C1.31,143.77,4.6,156.542,15.164,167.065s23.291,13.817,37.707,14.54c14.858.843,59.391.843,74.249,0,14.416-.683,27.186-3.976,37.707-14.54,10.521-10.523,13.814-23.3,14.537-37.715.843-14.861.843-59.364,0-74.225ZM160.168,145.3a30.373,30.373,0,0,1-17.107,17.11c-11.846,4.7-39.955,3.615-53.046,3.615s-41.24,1.044-53.046-3.615A30.373,30.373,0,0,1,19.862,145.3c-4.7-11.849-3.614-39.964-3.614-53.058S15.2,50.988,19.862,39.18a30.373,30.373,0,0,1,17.107-17.11c11.846-4.7,39.955-3.615,53.046-3.615s41.24-1.044,53.046,3.615a30.372,30.372,0,0,1,17.107,17.11c4.7,11.849,3.614,39.964,3.614,53.058S164.866,133.487,160.168,145.3Z" transform="translate(0.005 -2.238)" fill="#225384"/>
</svg>
