<svg xmlns="http://www.w3.org/2000/svg" width="180" height="180" viewBox="0 0 180 180">
  <path id="Icon_awesome-twitter-square" data-name="Icon awesome-twitter-square" d="M160.714,2.25H19.286A19.291,19.291,0,0,0,0,21.536V162.964A19.291,19.291,0,0,0,19.286,182.25H160.714A19.291,19.291,0,0,0,180,162.964V21.536A19.291,19.291,0,0,0,160.714,2.25Zm-19.647,63.8c.08,1.125.08,2.29.08,3.415,0,34.835-26.518,74.973-74.973,74.973a74.628,74.628,0,0,1-40.46-11.813,55.514,55.514,0,0,0,6.348.321A52.833,52.833,0,0,0,64.768,121.7,26.386,26.386,0,0,1,40.138,103.42a28.4,28.4,0,0,0,11.893-.482A26.353,26.353,0,0,1,30.937,77.062v-.321A26.334,26.334,0,0,0,42.83,80.076,26.3,26.3,0,0,1,31.1,58.138a26.022,26.022,0,0,1,3.576-13.3A74.822,74.822,0,0,0,89,72.4c-3.737-17.879,9.643-32.384,25.714-32.384a26.256,26.256,0,0,1,19.246,8.317,51.636,51.636,0,0,0,16.714-6.348,26.283,26.283,0,0,1-11.571,14.5,52.439,52.439,0,0,0,15.187-4.1A55.466,55.466,0,0,1,141.067,66.054Z" transform="translate(0 -2.25)" fill="#225384"/>
</svg>
