<svg xmlns="http://www.w3.org/2000/svg" width="180" height="180" viewBox="0 0 180 180">
  <path id="Icon_awesome-youtube-square" data-name="Icon awesome-youtube-square" d="M75.054,70.594,113.3,92.33l-38.25,21.737ZM180,21.536V162.964a19.291,19.291,0,0,1-19.286,19.286H19.286A19.291,19.291,0,0,1,0,162.964V21.536A19.291,19.291,0,0,1,19.286,2.25H160.714A19.291,19.291,0,0,1,180,21.536ZM163.125,92.371s0-23.946-3.054-35.438a18.339,18.339,0,0,0-12.938-13.018C135.763,40.821,90,40.821,90,40.821s-45.763,0-57.134,3.094A18.339,18.339,0,0,0,19.929,56.933c-3.054,11.451-3.054,35.438-3.054,35.438s0,23.946,3.054,35.437a18.075,18.075,0,0,0,12.938,12.817C44.237,143.679,90,143.679,90,143.679s45.763,0,57.134-3.094a18.075,18.075,0,0,0,12.938-12.817c3.054-11.451,3.054-35.4,3.054-35.4Z" transform="translate(0 -2.25)" fill="#225384"/>
</svg>
